<svg className="service-icon" width="101" height="101" viewBox="0 0 101 101" fill="none"
     xmlns="http://www.w3.org/2000/svg">
    <path
            d="M55.5 34.873C55.5 37.637 53.261 39.876 50.5 39.876C47.737 39.876 45.499 37.637 45.499 34.873C45.499 32.114 47.737 29.875 50.5 29.875C53.261 29.875 55.5 32.114 55.5 34.873Z"
            stroke="white" stroke-width="2" stroke-miterlimit="10" stroke-linecap="round"
            stroke-linejoin="round"/>
    <path
            d="M50.5 62.375C53.2614 62.375 55.5 60.1364 55.5 57.375C55.5 54.6136 53.2614 52.375 50.5 52.375C47.7386 52.375 45.5 54.6136 45.5 57.375C45.5 60.1364 47.7386 62.375 50.5 62.375Z"
            stroke="white" stroke-width="2" stroke-miterlimit="10" stroke-linecap="round"
            stroke-linejoin="round"/>
    <path
            d="M30.5 71.123C33.2614 71.123 35.5 68.8845 35.5 66.123C35.5 63.3616 33.2614 61.123 30.5 61.123C27.7386 61.123 25.5 63.3616 25.5 66.123C25.5 68.8845 27.7386 71.123 30.5 71.123Z"
            stroke="white" stroke-width="2" stroke-miterlimit="10" stroke-linecap="round"
            stroke-linejoin="round"/>
    <path
            d="M70.499 71.1241C73.261 71.1241 75.5 68.885 75.5 66.1231C75.5 63.3611 73.261 61.1221 70.499 61.1221C67.7371 61.1221 65.498 63.3611 65.498 66.1231C65.498 68.885 67.7371 71.1241 70.499 71.1241Z"
            stroke="white" stroke-width="2" stroke-miterlimit="10" stroke-linecap="round"
            stroke-linejoin="round"/>
    <path
            d="M55.076 36.876C54.305 38.638 52.548 39.875 50.5 39.875C48.451 39.875 46.696 38.64 45.923 36.878L30.5 43.624V61.125C33.261 61.125 35.5 63.361 35.5 66.123C35.5 66.836 35.346 67.512 35.076 68.127L50.501 74.873L65.921 68.127C65.652 67.514 65.498 66.836 65.498 66.123C65.498 63.361 67.735 61.125 70.498 61.125H70.5V43.624L55.076 36.876Z"
            stroke="white" stroke-width="2" stroke-miterlimit="10" stroke-linecap="round"
            stroke-linejoin="round"/>
    <path
            d="M70.502 26.126L55.076 32.871C55.345 33.487 55.5 34.16 55.5 34.873C55.5 37.637 53.261 39.876 50.5 39.876V52.376C53.261 52.376 55.5 54.614 55.5 57.376C55.5 58.089 55.347 58.763 55.076 59.376L65.921 64.122C66.693 62.358 68.448 61.126 70.498 61.126C72.546 61.126 74.305 62.36 75.076 64.124L90.498 57.376L90.5 57.377V34.875L70.502 26.126Z"
            stroke="white" stroke-width="2" stroke-miterlimit="10" stroke-linecap="round"
            stroke-linejoin="round"/>
    <path
            d="M45.499 57.375C45.499 54.613 47.737 52.375 50.5 52.375V39.875C47.737 39.875 45.499 37.636 45.499 34.872C45.499 34.159 45.653 33.484 45.922 32.871L30.502 26.126L10.5 34.875V57.377L10.502 57.375L25.923 64.121C26.694 62.357 28.449 61.125 30.499 61.125C32.549 61.125 34.305 62.359 35.077 64.123L45.922 59.377C45.653 58.762 45.499 58.088 45.499 57.375Z"
            stroke="white" stroke-width="2" stroke-miterlimit="10" stroke-linecap="round"
            stroke-linejoin="round"/>
</svg>
